<?xml version="1.0" encoding="UTF-8"?>
<svg width="100pt" height="100pt" version="1.1" viewBox="0 0 100 100" xmlns="http://www.w3.org/2000/svg">
 <path d="m11 15c-2.7344 0-5 2.2656-5 5v46c0 2.7344 2.2656 5 5 5h12v12c0.007812 0.73828 0.46094 1.4531 1.125 1.7773 0.26953 0.12891 0.57812 0.22266 0.875 0.22266 0.4375 0 0.87109-0.16797 1.2188-0.4375l17.438-13.562h45.344c2.7344 0 5-2.2656 5-5v-46c0-2.7344-2.2656-5-5-5zm0 4h78c0.58984 0 1 0.41016 1 1v46c0 0.58984-0.41016 1-1 1h-46c-0.4375-0.003906-0.87109 0.14453-1.2188 0.40625l-14.781 11.5v-9.9062c0-1.0469-0.95312-2-2-2h-14c-0.58984 0-1-0.41016-1-1v-46c0-0.58984 0.41016-1 1-1zm11 16c0 0.94141 0.95312 2 2 2h52c1.0547 0.015625 2.0273-0.94141 2.0273-2s-0.97266-2.0156-2.0273-2h-52c-1.1602 0-2 1.0586-2 2zm0 16c0 0.94141 0.95312 2 2 2h52c1.0547 0.015625 2.0273-0.94141 2.0273-2s-0.97266-2.0156-2.0273-2h-52c-1.1602 0-2 1.0586-2 2z"/>
</svg>
